<svg xmlns="http://www.w3.org/2000/svg" width="20" height="20" viewBox="0 0 20 20"
                                    fill="none" class="injected-svg c-profile__arrow-icon js-injected-svg lazy loading"
                                    data-src="https://proofed.com/wp-content/themes/proofed-v2/static/img/small-arrow.svg"
                                    data-was-processed="true">
                                    <path
                                        d="M15.3268 5.99348C15.1942 5.99352 15.0646 6.03311 14.9546 6.10718C14.8446 6.18126 14.7592 6.28646 14.7093 6.40933C14.6594 6.53221 14.6472 6.66717 14.6744 6.79697C14.7016 6.92678 14.7669 7.04552 14.862 7.13802L17.0573 9.33333H1.33333C1.24499 9.33208 1.15728 9.3484 1.0753 9.38134C0.99332 9.41429 0.918706 9.46319 0.855792 9.52522C0.792879 9.58725 0.742922 9.66117 0.708823 9.74267C0.674725 9.82418 0.657166 9.91165 0.657166 10C0.657166 10.0883 0.674725 10.1758 0.708823 10.2573C0.742922 10.3388 0.792879 10.4127 0.855792 10.4748C0.918706 10.5368 0.99332 10.5857 1.0753 10.6186C1.15728 10.6516 1.24499 10.6679 1.33333 10.6667H17.0573L14.862 12.862C14.798 12.9234 14.7469 12.997 14.7117 13.0784C14.6765 13.1598 14.6579 13.2474 14.657 13.3361C14.6561 13.4248 14.6729 13.5128 14.7065 13.5949C14.74 13.6771 14.7896 13.7517 14.8523 13.8144C14.915 13.8771 14.9896 13.9267 15.0717 13.9602C15.1538 13.9937 15.2418 14.0105 15.3305 14.0096C15.4192 14.0087 15.5068 13.9901 15.5883 13.9549C15.6697 13.9198 15.7432 13.8687 15.8047 13.8047L19.0794 10.5299C19.1608 10.4679 19.2269 10.3879 19.2724 10.2963C19.318 10.2046 19.3418 10.1037 19.342 10.0013C19.3423 9.89893 19.319 9.79788 19.2739 9.70598C19.2288 9.61408 19.1631 9.5338 19.082 9.47135C19.0807 9.47048 19.0794 9.46961 19.0781 9.46875L15.8047 6.19531C15.7426 6.13144 15.6683 6.08068 15.5862 6.04602C15.5041 6.01135 15.4159 5.99349 15.3268 5.99348Z"
                                        fill="white"></path>
                                </svg>